PathFileType	4	(X/Y/Z)	2_coords_data.trc
DataRate	CameraRate	NumFrames	NumMarkers	Units	OrigDataRate	OrigDataStartFrame	OrigNumFrames
30.0	30.0	5	21	m	30.0	20	59
Frame#	Time	THUMB_TIP	THUMB_IP	THUMB_MCP	THUMB_CMC	INDEX_TIP	INDEX_DIP	INDEX_PIP	INDEX_MCP	MIDDLE_TIP	MIDDLE_DIP	MIDDLE_PIP	MIDDLE_MCP	RING_TIP	RING_DIP	RING_PIP	RING_MCP	PINKY_TIP	PINKY_DIP	PINKY_PIP	PINKY_MCP	WRIST
X1	Y1	Z1	X2	Y2	Z2	X3	Y3	Z3	X4	Y4	Z4	X5	Y5	Z5	X6	Y6	Z6	X7	Y7	Z7	X8	Y8	Z8	X9	Y9	Z9	X10	Y10	Z10	X11	Y11	Z11	X12	Y12	Z12	X13	Y13	Z13	X14	Y14	Z14	X15	Y15	Z15	X16	Y16	Z16	X17	Y17	Z17	X18	Y18	Z18	X19	Y19	Z19	X20	Y20	Z20	X21	Y21	Z21
19	0.6333333333333333	-0.042051200866699216	-0.04297909927368164	0.91322998046875	-0.04172610092163086	-0.018636600494384765	0.9306500244140625	-0.04459130096435547	0.005853690147399902	0.9520759887695313	-0.05110089874267578	0.038516998291015625	0.9720460205078125	-0.03611880111694336	0.042482398986816404	0.9407059936523438	-0.017906200408935546	0.04709700012207031	0.9372990112304688	-0.0071713199615478515	0.047413200378417966	0.9158519897460937	-0.04940340042114258	0.03875500106811523	0.9107520141601563	-0.027261699676513672	0.05963169860839844	0.94381201171875	-0.022362899780273438	0.06355649948120118	0.9422169799804687	-0.009670289993286132	0.06691259765625	0.9188049926757812	-0.0544375	0.06209550094604492	0.9098809814453125	-0.0378827018737793	0.07225779724121094	0.9506409912109375	-0.02447279930114746	0.07886270141601562	0.94235498046875	-0.014272600173950196	0.08480580139160156	0.9186199951171875	-0.05695130157470703	0.08310890197753906	0.9175759887695313	-0.03768069839477539	0.08772859954833985	0.94910302734375	-0.023406999588012695	0.09320020294189453	0.9420989990234375	-0.02293390083312988	0.09919670104980469	0.9259310302734375	-0.05634709930419922	0.09900150299072266	0.9276270141601562	-0.0807135009765625	0.058357898712158206	0.9946580200195313
20	0.6666666666666666	-0.041485698699951175	-0.04292610168457031	0.9132429809570313	-0.04135350036621094	-0.018601499557495117	0.93072900390625	-0.0443651008605957	0.0058203601837158205	0.952197998046875	-0.05110770034790039	0.03836349868774414	0.972156005859375	-0.036245899200439455	0.042138301849365234	0.9406820068359375	-0.017868999481201173	0.04705799865722656	0.93739599609375	-0.007249139785766602	0.04744309997558594	0.9159990234375	-0.049523399353027346	0.038669700622558596	0.9109099731445313	-0.027303800582885743	0.059393001556396485	0.944218017578125	-0.022406200408935546	0.06339619827270508	0.9423200073242187	-0.00976725959777832	0.06691940307617188	0.9187890014648438	-0.054547000885009765	0.06200239944458008	0.9100380249023438	-0.03792340087890625	0.07231719970703125	0.950198974609375	-0.024527200698852537	0.07876129913330078	0.94247802734375	-0.014397600173950195	0.08475779724121094	0.9187009887695312	-0.057153499603271485	0.08296330261230468	0.9177379760742187	-0.037781200408935546	0.08728089904785157	0.9497479858398438	-0.02354050064086914	0.0930551986694336	0.94231201171875	-0.02303339958190918	0.0991063003540039	0.926166015625	-0.05649390029907227	0.09893620300292968	0.9280250244140625	-0.08082029724121094	0.058203800201416016	0.9949539794921874
21	0.7	-0.04162269973754883	-0.04301150131225586	0.9132780151367188	-0.041476898193359375	-0.018707199096679686	0.9308679809570313	-0.04456079864501953	0.005707590103149414	0.9522169799804687	-0.05136849975585937	0.03823529815673828	0.9723560180664063	-0.036241001129150394	0.04199869918823242	0.9399959716796875	-0.01803470039367676	0.04696580123901367	0.9375269775390624	-0.007480000019073486	0.04729199981689453	0.9159819946289063	-0.04955500030517578	0.0385447998046875	0.9110059814453125	-0.027603099822998047	0.0594031982421875	0.9441290283203125	-0.02261389923095703	0.06327399826049805	0.9424840087890625	-0.010046999931335449	0.06678170013427734	0.9187369995117187	-0.05476670074462891	0.06188930130004883	0.9100679931640625	-0.038117000579833984	0.07214640045166015	0.9508900146484375	-0.024768999099731445	0.07863839721679687	0.9426300048828125	-0.01460260009765625	0.08468060302734375	0.918968017578125	-0.05716270065307617	0.08289810180664063	0.9177670288085937	-0.03807300186157227	0.08721309661865234	0.9496799926757813	-0.023847900390625	0.09283930206298828	0.9425590209960938	-0.023259000778198244	0.09900370025634765	0.9264580078125	-0.0566796989440918	0.09881629943847656	0.9279019775390625	-0.08106939697265625	0.05818650054931641	0.9950339965820313
22	0.7333333333333333	-0.041269298553466796	-0.043057201385498046	0.9132960205078124	-0.041297401428222656	-0.018874500274658205	0.9309509887695312	-0.04463119888305664	0.00547406005859375	0.9524630126953125	-0.05163919830322266	0.03799129867553711	0.9725570068359375	-0.03601940155029297	0.04209930038452148	0.9417030029296874	-0.017554800033569337	0.04678509902954102	0.9383489990234375	-0.006702199935913086	0.047146499633789064	0.9170599975585938	-0.04885070037841797	0.03856039810180664	0.91131298828125	-0.027130300521850587	0.0590531005859375	0.9453309936523437	-0.022187599182128905	0.06320429992675781	0.9433839721679688	-0.00928427028656006	0.06673899841308593	0.9200020141601563	-0.05372650146484375	0.06192419815063477	0.9105800170898437	-0.03835300064086914	0.07188009643554688	0.9509039916992188	-0.024404800415039063	0.078435302734375	0.9438670043945312	-0.013820599555969239	0.08470469665527344	0.9204819946289062	-0.05631930160522461	0.08288490295410156	0.9181929931640626	-0.03785770034790039	0.08697380065917969	0.9505579833984374	-0.023340099334716796	0.09271160125732422	0.944073974609375	-0.022382299423217775	0.09896630096435546	0.928093017578125	-0.05592440032958984	0.09887539672851563	0.9286719970703124	-0.08149220275878906	0.05798780059814453	0.99489697265625
23	0.7666666666666667	-0.034774200439453125	-0.04265280151367187	0.9138779907226563	-0.037109100341796875	-0.018614400863647462	0.9317449951171874	-0.042741901397705076	0.005614980220794678	0.9532169799804687	-0.05138919830322266	0.0377963981628418	0.9731090087890625	-0.03545389938354492	0.041862998962402344	0.9420989990234375	-0.016756000518798827	0.04716579818725586	0.9390800170898438	-0.005593679904937744	0.04784460067749023	0.91793798828125	-0.04762469863891602	0.038948299407958985	0.911656982421875	-0.026442100524902343	0.05948740005493164	0.9462069702148438	-0.021595399856567384	0.06341479873657227	0.9442960205078125	-0.008517939567565918	0.06744020080566407	0.921156005859375	-0.05276779937744141	0.062183601379394535	0.91097998046875	-0.038147098541259764	0.0716333999633789	0.951708984375	-0.024173200607299803	0.07860250091552734	0.9451240234375	-0.01331470012664795	0.0852885971069336	0.9217410278320313	-0.05586090087890625	0.08301309967041015	0.9190029907226562	-0.03775320053100586	0.08692839813232422	0.9524409790039062	-0.02300550079345703	0.09285649871826172	0.945572021484375	-0.022067499160766602	0.09940360260009766	0.9296680297851563	-0.05563399887084961	0.09883399963378907	0.9296199951171875	-0.08170269775390625	0.05728020095825195	0.9949010009765625
